<svg width="32" height="32" viewBox="0 0 32 32" fill="none" xmlns="http://www.w3.org/2000/svg">
<path d="M17.5 7.49976C17.5 8.88047 18.6193 9.99976 20 9.99976C21.3807 9.99976 22.5 8.88047 22.5 7.49976M17.5 7.49976C17.5 6.11904 18.6193 4.99976 20 4.99976C21.3807 4.99976 22.5 6.11904 22.5 7.49976M17.5 7.49976L4 7.49975M22.5 7.49976L28 7.49976" stroke="currentColor" stroke-width="2.5" stroke-linecap="round"/>
<path d="M14.5 24.4998C14.5 25.8805 15.6193 26.9998 17 26.9998C18.3807 26.9998 19.5 25.8805 19.5 24.4998M14.5 24.4998C14.5 23.119 15.6193 21.9998 17 21.9998C18.3807 21.9998 19.5 23.119 19.5 24.4998M14.5 24.4998L4 24.4998M19.5 24.4998L28 24.4998" stroke="currentColor" stroke-width="2.5" stroke-linecap="round"/>
<path d="M6.5 15.9998C6.5 17.3805 7.61929 18.4998 9 18.4998C10.3807 18.4998 11.5 17.3805 11.5 15.9998M6.5 15.9998C6.5 14.619 7.61929 13.4998 9 13.4998C10.3807 13.4998 11.5 14.619 11.5 15.9998M6.5 15.9998L4 15.9998M11.5 15.9998L28 15.9998" stroke="currentColor" stroke-width="2.5" stroke-linecap="round"/>
</svg>
